<?xml version="1.0" encoding="UTF-8"?>
<svg width="40" height="40" version="1.1" viewBox="0 0 500.00001 500.00001" xmlns="http://www.w3.org/2000/svg">
	<rect x="0" y="0" class="st4" width="500" height="500" stroke="#fff" fill="#ffff"/>
	<g transform="matrix(7.0274 0 0 7.0274 74.315 -6969.7)">
		<circle cx="25" cy="1027.4" r="23.151" fill="none" stroke="#f55" stroke-width="2.0801"/>
		<path transform="translate(0 1002.4)" d="m10.963 13.283c-0.72893 0-1.3164 0.58748-1.3164 1.3164v20.801c0 0.72893 0.58747 1.3164 1.3164 1.3164h15.283c0.72893 0 1.3164-0.58748 1.3164-1.3164v-20.801c0-0.72893-0.58748-1.3164-1.3164-1.3164h-15.283zm3.1992 2.4082h11.406v1.2598h-11.406v-1.2598zm-1.8926 0.0039a0.62987 0.62987 0 0 1 0.63086 0.63086 0.62987 0.62987 0 0 1 -0.63086 0.62891 0.62987 0.62987 0 0 1 -0.62891 -0.62891 0.62987 0.62987 0 0 1 0.62891 -0.63086zm1.8926 2.4746h11.406v1.2598h-11.406v-1.2598zm-1.9375 0.0059a0.62987 0.62987 0 0 1 0.04492 0 0.62987 0.62987 0 0 1 0.63086 0.62891 0.62987 0.62987 0 0 1 -0.63086 0.63086 0.62987 0.62987 0 0 1 -0.62891 -0.63086 0.62987 0.62987 0 0 1 0.58398 -0.62891zm1.9375 2.4727h11.406v1.2598h-11.406v-1.2598zm-1.8926 0.0059a0.62987 0.62987 0 0 1 0.63086 0.62891 0.62987 0.62987 0 0 1 -0.63086 0.63086 0.62987 0.62987 0 0 1 -0.62891 -0.63086 0.62987 0.62987 0 0 1 0.62891 -0.62891zm1.8926 2.4746h11.406v1.2598h-11.406v-1.2598zm-1.8926 0.0039a0.62987 0.62987 0 0 1 0.63086 0.63086 0.62987 0.62987 0 0 1 -0.63086 0.62891 0.62987 0.62987 0 0 1 -0.62891 -0.62891 0.62987 0.62987 0 0 1 0.62891 -0.63086zm1.8926 2.4746h11.406v1.2598h-11.406v-1.2598zm-1.8926 0.0039a0.62987 0.62987 0 0 1 0.63086 0.63086 0.62987 0.62987 0 0 1 -0.63086 0.62891 0.62987 0.62987 0 0 1 -0.62891 -0.62891 0.62987 0.62987 0 0 1 0.62891 -0.63086zm1.8926 2.4746h11.406v1.2598h-11.406v-1.2598zm-1.9375 0.0059a0.62987 0.62987 0 0 1 0.04492 0 0.62987 0.62987 0 0 1 0.63086 0.62891 0.62987 0.62987 0 0 1 -0.63086 0.63086 0.62987 0.62987 0 0 1 -0.62891 -0.63086 0.62987 0.62987 0 0 1 0.58398 -0.62891zm1.9375 2.4727h11.406v1.2598h-11.406v-1.2598zm-1.8926 0.0059a0.62987 0.62987 0 0 1 0.63086 0.62891 0.62987 0.62987 0 0 1 -0.63086 0.63086 0.62987 0.62987 0 0 1 -0.62891 -0.63086 0.62987 0.62987 0 0 1 0.62891 -0.62891zm1.8926 2.4746h11.406v1.2598h-11.406v-1.2598zm-1.8926 0.0039a0.62987 0.62987 0 0 1 0.63086 0.63086 0.62987 0.62987 0 0 1 -0.63086 0.62891 0.62987 0.62987 0 0 1 -0.62891 -0.62891 0.62987 0.62987 0 0 1 0.62891 -0.63086z" fill="#f55"/>
		<g transform="matrix(0 -.030292 .030292 0 29.463 1034.9)" fill="#f55">
			<g transform="translate(0,-552.36)" fill="#f55">
				<path d="m233.02 587.81c-8.31 2e-5 -15 6.69-15 15v300.56l-72.657-72.683c-2.9375-2.9385-6.7595-4.4062-10.594-4.4062s-7.6557 1.4682-10.594 4.4062l-24 24c-5.8761 5.8761-5.8761 15.343 0 21.219l100.5 100.5 16.094 16.125c0.0314 0.031 0.0627 0.062 0.0937 0.094 0.0311 0.031 0.0619 0.063 0.0937 0.094l16.5 16.5s7.5805 7.7035 16.531 7.7035c8.8715 0 16.594-7.7973 16.594-7.7973l16.625-16.594 116.62-116.62c5.8761-5.8761 5.8761-15.343 0-21.219l-24-24c-5.8761-5.8761-15.311-5.8761-21.188 0l-72.683 72.683v-300.56c0-8.31-6.69-15-15-15z" fill="#f55"/>
			</g>
		</g>
	</g>

</svg>
